<svg xmlns="http://www.w3.org/2000/svg" xmlns:xlink="http://www.w3.org/1999/xlink" width="375" height="317" viewBox="0 0 375 317">
  <defs>
    <linearGradient id="linear-gradient" y1="0.5" x2="1" y2="0.5" gradientUnits="objectBoundingBox">
      <stop offset="0" stop-color="#ff82d1"/>
      <stop offset="0.504" stop-color="#d242c3"/>
      <stop offset="1" stop-color="#a400b6"/>
    </linearGradient>
    <clipPath id="clip-path">
      <ellipse id="Ellipse_15" data-name="Ellipse 15" cx="233" cy="183.5" rx="233" ry="183.5" transform="translate(-45 -86)" fill="#00d6ff"/>
    </clipPath>
    <clipPath id="clip-SVG">
      <rect width="375" height="317"/>
    </clipPath>
  </defs>
  <g id="SVG" clip-path="url(#clip-SVG)">
    <rect id="Rectangle_32" data-name="Rectangle 32" width="375" height="246" rx="25" transform="translate(0 71)" fill="#00d6ff" opacity="0.09"/>
    <g id="Group_22" data-name="Group 22" transform="translate(54.151 -266.547) rotate(20)">
      <path id="Path_18" data-name="Path 18" d="M.369,63.435a34.924,34.924,0,0,1,45.348-28.2c5.975,1.112,72.969,23.814,102.642-11.874a67.584,67.584,0,0,1,108.974,9.323l22.392,32.545a93.169,93.169,0,0,0,43.293,35.29l51.961,20.722a98.48,98.48,0,0,1,10.143,4.045l.125.049,0,.008A99.172,99.172,0,0,1,313.4,309.768L260.277,297.6a93.2,93.2,0,0,0-82.113,20.654c-6.031,5.267-13.263,13-14.256,14.522-.007.012-.047.009-.068.013A84.117,84.117,0,0,1,15.366,267.549c.092-.628,16.936-92.218,16.936-92.218l.071-.4A92.5,92.5,0,0,0,20.4,111.449L5.693,87.571A34.8,34.8,0,0,1,.369,63.435Z" transform="translate(0 0)" fill="url(#linear-gradient)"/>
    </g>
  </g>
</svg>
