<svg width="22" height="25" viewBox="0 0 22 25" fill="none" xmlns="http://www.w3.org/2000/svg">
<path fill-rule="evenodd" clip-rule="evenodd" d="M17.3085 21.201C16.3235 21.201 15.3396 21.208 14.3546 21.201C14.303 21.1913 14.2499 21.192 14.1986 21.2032C14.1473 21.2144 14.0989 21.2358 14.056 21.2661C14.0132 21.2964 13.9769 21.3351 13.9493 21.3797C13.9218 21.4244 13.9036 21.4741 13.8956 21.526C13.6792 22.2506 13.2334 22.8855 12.6254 23.3352C12.0173 23.7849 11.2798 24.0252 10.5236 24.02C9.77544 24.0179 9.0478 23.7757 8.44763 23.3291C7.84745 22.8824 7.40646 22.255 7.18957 21.539C7.08957 21.239 6.95157 21.201 6.68957 21.202C4.76757 21.209 2.84448 21.202 0.92248 21.209C0.55548 21.209 0.222537 21.1621 0.0555366 20.7931C-0.00758027 20.6318 -0.0171861 20.4544 0.0281928 20.2873C0.0735718 20.1202 0.171482 19.9721 0.30749 19.865C2.26372 17.7551 3.32709 14.9697 3.27453 12.093C3.21958 10.8923 3.28654 9.6892 3.47448 8.50204C3.70693 7.31312 4.24741 6.20599 5.04162 5.29123C5.83583 4.37646 6.85609 3.68608 8.0006 3.28903C8.14177 3.25927 8.26596 3.17621 8.34753 3.05722C8.42909 2.93822 8.46175 2.79239 8.43859 2.64999C8.41214 2.27598 8.43979 1.90015 8.52062 1.53402C8.65125 1.06269 8.94272 0.651956 9.3446 0.373196C9.74648 0.0944349 10.2334 -0.0347476 10.7206 0.0080222C11.2121 0.0270299 11.6785 0.2307 12.0265 0.578457C12.3744 0.926214 12.5783 1.39244 12.5975 1.884C12.5665 2.85 12.9655 3.20897 13.7855 3.62197C15.0184 4.20324 16.0557 5.13055 16.7709 6.29086C17.4861 7.45117 17.8483 8.79437 17.8136 10.1569C17.8446 11.4209 17.8134 12.694 17.9554 13.946C18.2238 16.1186 19.1716 18.151 20.6634 19.753C20.7154 19.811 20.7975 19.86 20.8175 19.927C20.94 20.1941 21.0046 20.4842 21.0074 20.778C20.9464 21.113 20.6075 21.211 20.2635 21.208C19.2775 21.196 18.2925 21.201 17.3085 21.201ZM2.25866 19.7671H18.8256C18.7346 19.6221 18.6745 19.5209 18.6075 19.4229C17.2273 17.4337 16.4646 15.0816 16.4147 12.661C16.3907 11.646 16.4296 10.6281 16.3656 9.61605C16.2595 8.21621 15.6529 6.90129 14.6566 5.9122C13.6604 4.92311 12.3411 4.32598 10.9405 4.23001C9.5315 4.1271 8.13322 4.54206 7.00842 5.39694C5.88361 6.25182 5.10974 7.48785 4.83166 8.87301C4.68809 9.90875 4.63923 10.9554 4.68566 12C4.74076 14.6909 3.93803 17.3297 2.39367 19.534C2.34867 19.592 2.32066 19.6581 2.25866 19.7671ZM12.4987 21.201H8.59045C8.72289 21.6026 8.97709 21.953 9.3175 22.2038C9.65791 22.4546 10.0678 22.5935 10.4906 22.601C10.9306 22.6114 11.3624 22.4812 11.7235 22.2295C12.0846 21.9777 12.3562 21.6175 12.4987 21.201ZM9.84558 2.80099H11.2115C11.2325 2.33799 11.3885 1.84398 10.9205 1.55398C10.8079 1.49761 10.6844 1.46654 10.5585 1.46292C10.4325 1.45929 10.3072 1.48319 10.1915 1.53299C9.68652 1.79399 9.86251 2.308 9.84851 2.798L9.84558 2.80099Z" fill="#fff"/>
<path fill-rule="evenodd" clip-rule="evenodd" d="M0.0110258 9.51912C0.130947 6.9645 1.18793 4.54359 2.98002 2.71907C3.08272 2.57902 3.23244 2.48057 3.40165 2.44148C3.57086 2.40239 3.74842 2.42525 3.90214 2.50605C4.04719 2.572 4.16226 2.68988 4.22465 2.8365C4.28703 2.98311 4.29211 3.1478 4.23905 3.29805C4.18186 3.45868 4.08775 3.60369 3.96415 3.72114C2.36596 5.36309 1.45032 7.55031 1.40214 9.84114C1.40255 9.98181 1.38666 10.122 1.35502 10.2591C1.32474 10.4151 1.23795 10.5544 1.11112 10.6502C0.984296 10.746 0.826627 10.7915 0.668252 10.778C0.509024 10.7846 0.353202 10.7306 0.232217 10.6269C0.111233 10.5232 0.0339774 10.3774 0.0161527 10.2191C-0.00346353 9.98621 -0.00526209 9.75223 0.0110258 9.51912Z" fill="#fff"/>
<path fill-rule="evenodd" clip-rule="evenodd" d="M21.0873 9.5472C21.0873 9.6562 21.0873 9.7662 21.0873 9.8752C21.0963 10.4312 20.8593 10.7591 20.4303 10.7841C20.0013 10.8091 19.7213 10.4952 19.6803 9.95418C19.6483 9.53418 19.6321 9.11115 19.5721 8.69515C19.3038 6.84147 18.4598 5.11905 17.1593 3.7712C17.1163 3.7252 17.0711 3.68221 17.0301 3.63521C16.8942 3.50344 16.816 3.32314 16.8126 3.13387C16.8092 2.94459 16.8812 2.76174 17.0123 2.6252C17.0819 2.55609 17.1649 2.50219 17.2565 2.467C17.348 2.43181 17.4459 2.41603 17.5438 2.42073C17.6417 2.42544 17.7376 2.45054 17.8253 2.49434C17.913 2.53814 17.9905 2.59967 18.0531 2.67513C19.0271 3.65095 19.7956 4.81221 20.3131 6.09017C20.7647 7.19045 21.0266 8.35939 21.0873 9.5472Z" fill="#fff"/>
</svg>
