<svg width="158" height="45" viewBox="0 0 158 45" fill="none" xmlns="http://www.w3.org/2000/svg">
<g filter="url(#filter0_d_1917_2202)">
<path d="M36.6 11.79L31.53 33H25.17L21.78 18.81L18.36 33H12L6.93 11.79H12.51L15.24 27.15L18.96 11.79H24.57L28.29 27.15L31.05 11.79H36.6ZM55.1934 24.18C55.1934 24.6 55.1434 25.06 55.0434 25.56H43.4334C43.4934 26.82 43.8134 27.73 44.3934 28.29C44.9734 28.83 45.7134 29.1 46.6134 29.1C47.3734 29.1 48.0034 28.91 48.5034 28.53C49.0034 28.15 49.3334 27.66 49.4934 27.06H54.9234C54.7034 28.24 54.2234 29.3 53.4834 30.24C52.7434 31.16 51.8034 31.89 50.6634 32.43C49.5234 32.95 48.2534 33.21 46.8534 33.21C45.2134 33.21 43.7534 32.87 42.4734 32.19C41.2134 31.49 40.2234 30.49 39.5034 29.19C38.7834 27.89 38.4234 26.37 38.4234 24.63C38.4234 22.87 38.7734 21.35 39.4734 20.07C40.1934 18.77 41.1934 17.78 42.4734 17.1C43.7534 16.4 45.2134 16.05 46.8534 16.05C48.5134 16.05 49.9734 16.39 51.2334 17.07C52.4934 17.75 53.4634 18.71 54.1434 19.95C54.8434 21.17 55.1934 22.58 55.1934 24.18ZM50.0034 23.4C50.0234 22.3 49.7234 21.48 49.1034 20.94C48.5034 20.38 47.7534 20.1 46.8534 20.1C45.9134 20.1 45.1334 20.38 44.5134 20.94C43.8934 21.5 43.5434 22.32 43.4634 23.4H50.0034ZM62.9977 10.8V33H57.8677V10.8H62.9977ZM74.0995 16.05C76.2595 16.05 78.0695 16.65 79.5295 17.85C80.9895 19.03 81.9095 20.66 82.2895 22.74H76.8595C76.6995 22.02 76.3695 21.46 75.8695 21.06C75.3695 20.66 74.7395 20.46 73.9795 20.46C73.0795 20.46 72.3395 20.82 71.7595 21.54C71.1795 22.24 70.8895 23.27 70.8895 24.63C70.8895 25.99 71.1795 27.03 71.7595 27.75C72.3395 28.45 73.0795 28.8 73.9795 28.8C74.7395 28.8 75.3695 28.6 75.8695 28.2C76.3695 27.8 76.6995 27.24 76.8595 26.52H82.2895C81.9095 28.6 80.9895 30.24 79.5295 31.44C78.0695 32.62 76.2595 33.21 74.0995 33.21C72.4595 33.21 70.9995 32.87 69.7195 32.19C68.4595 31.49 67.4695 30.49 66.7495 29.19C66.0295 27.89 65.6695 26.37 65.6695 24.63C65.6695 22.87 66.0195 21.35 66.7195 20.07C67.4395 18.77 68.4395 17.78 69.7195 17.1C70.9995 16.4 72.4595 16.05 74.0995 16.05ZM92.7973 16.05C94.4573 16.05 95.9373 16.4 97.2373 17.1C98.5573 17.78 99.5873 18.77 100.327 20.07C101.087 21.37 101.467 22.89 101.467 24.63C101.467 26.37 101.087 27.89 100.327 29.19C99.5873 30.49 98.5573 31.49 97.2373 32.19C95.9373 32.87 94.4573 33.21 92.7973 33.21C91.1373 33.21 89.6473 32.87 88.3273 32.19C87.0073 31.49 85.9673 30.49 85.2073 29.19C84.4673 27.89 84.0973 26.37 84.0973 24.63C84.0973 22.89 84.4673 21.37 85.2073 20.07C85.9673 18.77 87.0073 17.78 88.3273 17.1C89.6473 16.4 91.1373 16.05 92.7973 16.05ZM92.7973 20.49C91.8173 20.49 90.9873 20.85 90.3073 21.57C89.6473 22.27 89.3173 23.29 89.3173 24.63C89.3173 25.97 89.6473 26.99 90.3073 27.69C90.9873 28.39 91.8173 28.74 92.7973 28.74C93.7773 28.74 94.5973 28.39 95.2573 27.69C95.9173 26.99 96.2473 25.97 96.2473 24.63C96.2473 23.29 95.9173 22.27 95.2573 21.57C94.5973 20.85 93.7773 20.49 92.7973 20.49ZM125.817 16.08C127.877 16.08 129.497 16.72 130.677 18C131.857 19.26 132.447 21.02 132.447 23.28V33H127.347V23.88C127.347 22.82 127.057 22 126.477 21.42C125.917 20.82 125.147 20.52 124.167 20.52C123.147 20.52 122.337 20.84 121.737 21.48C121.157 22.1 120.867 22.98 120.867 24.12V33H115.737V23.88C115.737 22.82 115.457 22 114.897 21.42C114.337 20.82 113.567 20.52 112.587 20.52C111.567 20.52 110.757 20.83 110.157 21.45C109.557 22.07 109.257 22.96 109.257 24.12V33H104.127V16.26H109.257V19.11C109.697 18.17 110.367 17.43 111.267 16.89C112.187 16.35 113.257 16.08 114.477 16.08C115.757 16.08 116.887 16.38 117.867 16.98C118.847 17.56 119.587 18.4 120.087 19.5C120.667 18.46 121.457 17.63 122.457 17.01C123.477 16.39 124.597 16.08 125.817 16.08ZM151.756 24.18C151.756 24.6 151.706 25.06 151.606 25.56H139.996C140.056 26.82 140.376 27.73 140.956 28.29C141.536 28.83 142.276 29.1 143.176 29.1C143.936 29.1 144.566 28.91 145.066 28.53C145.566 28.15 145.896 27.66 146.056 27.06H151.486C151.266 28.24 150.786 29.3 150.046 30.24C149.306 31.16 148.366 31.89 147.226 32.43C146.086 32.95 144.816 33.21 143.416 33.21C141.776 33.21 140.316 32.87 139.036 32.19C137.776 31.49 136.786 30.49 136.066 29.19C135.346 27.89 134.986 26.37 134.986 24.63C134.986 22.87 135.336 21.35 136.036 20.07C136.756 18.77 137.756 17.78 139.036 17.1C140.316 16.4 141.776 16.05 143.416 16.05C145.076 16.05 146.536 16.39 147.796 17.07C149.056 17.75 150.026 18.71 150.706 19.95C151.406 21.17 151.756 22.58 151.756 24.18ZM146.566 23.4C146.586 22.3 146.286 21.48 145.666 20.94C145.066 20.38 144.316 20.1 143.416 20.1C142.476 20.1 141.696 20.38 141.076 20.94C140.456 21.5 140.106 22.32 140.026 23.4H146.566Z" fill="#CE63CE"/>
</g>
<defs>
<filter id="filter0_d_1917_2202" x="0.929688" y="7.7998" width="156.828" height="34.4102" filterUnits="userSpaceOnUse" color-interpolation-filters="sRGB">
<feFlood flood-opacity="0" result="BackgroundImageFix"/>
<feColorMatrix in="SourceAlpha" type="matrix" values="0 0 0 0 0 0 0 0 0 0 0 0 0 0 0 0 0 0 127 0" result="hardAlpha"/>
<feOffset dy="3"/>
<feGaussianBlur stdDeviation="3"/>
<feColorMatrix type="matrix" values="0 0 0 0 0 0 0 0 0 0 0 0 0 0 0 0 0 0 0.161 0"/>
<feBlend mode="normal" in2="BackgroundImageFix" result="effect1_dropShadow_1917_2202"/>
<feBlend mode="normal" in="SourceGraphic" in2="effect1_dropShadow_1917_2202" result="shape"/>
</filter>
</defs>
</svg>
